<?xml version="1.0" encoding="UTF-8"?>
<svg version="1.1" xmlns="http://www.w3.org/2000/svg" width="530" height="530">
<path d="M0 0 C1.24390503 0.01027222 1.24390503 0.01027222 2.51293945 0.02075195 C12.60201029 0.28394511 20.44827359 3.66679883 28.625 9.4375 C29.470625 9.994375 30.31625 10.55125 31.1875 11.125 C39.62204726 19.12700638 44.97050944 29.93985205 45.86328125 41.53125 C46.13956735 54.21132781 43.37135134 64.35021831 35.625 74.4375 C34.75875 75.736875 34.75875 75.736875 33.875 77.0625 C26.27981795 85.07963661 16.42271558 90.27818613 5.3046875 90.67578125 C1.4042538 90.72416204 -2.47878681 90.61549959 -6.375 90.4375 C-6.61976074 91.2620166 -6.86452148 92.0865332 -7.11669922 92.93603516 C-8.57831799 97.00327155 -10.4642279 100.66196681 -12.5078125 104.4609375 C-12.90451141 105.20711334 -13.30121033 105.95328918 -13.70993042 106.72207642 C-14.96896445 109.08788472 -16.23436984 111.45021503 -17.5 113.8125 C-18.35849704 115.42295106 -19.21657444 117.0336259 -20.07421875 118.64453125 C-22.16963163 122.57812716 -24.27076263 126.50861811 -26.375 130.4375 C-23.38083522 133.5136967 -20.44202805 135.8196939 -16.8125 138.125 C7.26076313 153.94040439 26.16346818 175.36448211 41.625 199.4375 C49.03687319 195.77997186 56.4228517 192.0820787 63.73828125 188.234375 C65.29276978 187.41694824 65.29276978 187.41694824 66.87866211 186.58300781 C68.94778433 185.49220736 71.01503251 184.39784413 73.08032227 183.29980469 C74.03092529 182.79868164 74.98152832 182.29755859 75.9609375 181.78125 C76.81220215 181.32943359 77.6634668 180.87761719 78.54052734 180.41210938 C80.625 179.4375 80.625 179.4375 82.625 179.4375 C82.57859375 178.42171875 82.5321875 177.4059375 82.484375 176.359375 C82.0285825 162.20736331 84.77187054 151.1818673 94.625 140.4375 C105.39014783 130.8631159 116.61372049 127.02594082 130.85546875 127.16015625 C143.12067967 128.06257073 153.44034522 133.34343913 161.625 142.4375 C162.45 143.30375 163.275 144.17 164.125 145.0625 C173.04339304 155.90004091 173.67323817 169.09031484 172.625 182.4375 C171.09192872 190.01525232 167.34972192 196.3907756 162.625 202.4375 C162.14675781 203.05367187 161.66851562 203.66984375 161.17578125 204.3046875 C153.36505308 213.15815771 141.07640699 217.62272354 129.5859375 218.61328125 C117.41851557 219.0738012 106.56903779 214.06685853 96.625 207.4375 C92.69551493 209.4622126 88.76693234 211.48866343 84.83911133 213.51660156 C83.50796678 214.20358183 82.17659358 214.89011924 80.8449707 215.57617188 C72.71584777 219.76473691 64.62802769 224.01073726 56.625 228.4375 C57.34201663 233.03744986 58.4583967 237.20600716 59.9375 241.625 C75.7834552 290.99013654 70.09326689 344.83767636 46.921875 390.9296875 C41.73716545 400.8449918 35.79076366 410.04783402 28.87890625 418.84130859 C27.74606398 420.28338858 26.63715097 421.74418836 25.53125 423.20703125 C10.85409246 442.03330832 -7.62737037 457.70636362 -28.375 469.4375 C-28.99246094 469.79263672 -29.60992187 470.14777344 -30.24609375 470.51367188 C-75.2905253 496.24697584 -129.68281252 502.44275629 -179.63671875 488.828125 C-190.208852 485.80069977 -200.37232137 481.99413167 -210.375 477.4375 C-210.71233154 478.06205078 -211.04966309 478.68660156 -211.3972168 479.33007812 C-212.94964243 482.20067115 -214.50604177 485.06909163 -216.0625 487.9375 C-216.59294922 488.91976563 -217.12339844 489.90203125 -217.66992188 490.9140625 C-228.25612704 510.39787568 -228.25612704 510.39787568 -234.375 512.4375 C-239.66987804 512.94454484 -244.03000981 513.08597741 -248.875 510.75 C-253.04609775 506.89173458 -254.98066914 503.41760423 -255.50268555 497.64794922 C-254.96432557 488.32804253 -247.91371495 478.92564884 -243.4453125 471.03320312 C-242.66027344 469.62651367 -242.66027344 469.62651367 -241.859375 468.19140625 C-241.38209961 467.34908447 -240.90482422 466.5067627 -240.41308594 465.63891602 C-239.16174407 463.39090852 -239.16174407 463.39090852 -239.375 460.4375 C-241.7204867 458.36815306 -241.7204867 458.36815306 -244.75 456.3125 C-250.65922179 452.03870371 -256.08640181 447.47140649 -261.375 442.4375 C-261.9412207 441.90382813 -262.50744141 441.37015625 -263.09082031 440.8203125 C-272.33002043 432.06277684 -280.20036711 422.95333407 -287.375 412.4375 C-291.1137536 413.13988815 -294.09244493 414.76415661 -297.42578125 416.5625 C-298.61113926 417.1930635 -299.79669239 417.82326031 -300.98242188 418.453125 C-302.83435523 419.44291343 -304.68441243 420.43582844 -306.53100586 421.43554688 C-308.32436686 422.40402414 -310.12442636 423.35899334 -311.92578125 424.3125 C-312.99481689 424.88742187 -314.06385254 425.46234375 -315.1652832 426.0546875 C-319.93383189 428.10907708 -323.88868479 428.69376124 -329 427.8125 C-333.9434048 425.79852027 -336.45862021 422.81206969 -339.375 418.4375 C-339.94248098 413.67655564 -340.00636395 409.05098564 -338.25 404.5625 C-332.44029358 397.97816606 -325.24381296 394.54497755 -317.5 390.625 C-316.3346875 390.02751953 -315.169375 389.43003906 -313.96875 388.81445312 C-311.10755017 387.34867452 -308.24298111 385.88995259 -305.375 384.4375 C-305.375 380.70712722 -306.53206766 378.43646724 -308 375 C-327.16365625 328.35238072 -328.03819516 274.28246791 -309.05859375 227.390625 C-299.07764896 203.65802242 -286.10907514 183.14723623 -268.375 164.4375 C-267.91963867 163.94958984 -267.46427734 163.46167969 -266.99511719 162.95898438 C-249.22771564 144.02438126 -227.2961817 129.46729125 -203.375 119.4375 C-202.17488281 118.92832031 -200.97476563 118.41914062 -199.73828125 117.89453125 C-157.38228212 100.62470495 -104.80955347 98.47794342 -61.8828125 115.125 C-58.53092657 116.61271878 -58.53092657 116.61271878 -55.375 116.4375 C-48.26310754 102.82591095 -41.16934404 89.21092854 -34.375 75.4375 C-34.76171875 74.90382813 -35.1484375 74.37015625 -35.546875 73.8203125 C-43.54548638 62.37675464 -46.91429197 50.77114016 -44.8125 36.8125 C-42.19431808 24.94829101 -35.87269233 14.73926626 -25.9609375 7.73046875 C-17.68379423 2.46436057 -9.81756335 -0.12556998 0 0 Z M-12.1875 37.125 C-14.05927139 40.77002849 -14.48843626 44.3608845 -14.375 48.4375 C-12.55025555 53.81035867 -9.42697929 56.91151035 -4.375 59.4375 C-0.11343416 60.05297295 3.92625444 60.38743604 7.76953125 58.23828125 C12.23858854 54.50309021 14.42913138 51.46147573 15 45.5625 C14.84708904 40.07809355 12.05038674 37.0305793 8.5 33.0625 C0.75325821 28.68390681 -6.07964954 31.4383806 -12.1875 37.125 Z M-250.52734375 190.875 C-280.18862171 224.8752537 -293.32118438 267.6955321 -291.375 312.4375 C-287.7713965 357.76032156 -266.01179811 396.33997953 -232.6796875 426.58203125 C-230.62695822 428.23465228 -228.7802593 429.39004837 -226.375 430.4375 C-227.84109615 426.444414 -229.76075332 422.96239847 -231.9375 419.3125 C-247.19265514 392.96941721 -257.30435981 363.32075093 -257.61328125 332.65234375 C-257.6230751 331.84199677 -257.63286896 331.03164978 -257.64295959 330.19674683 C-257.81496879 312.27460932 -257.66047048 294.95118073 -253.375 277.4375 C-253.16069336 276.5412793 -252.94638672 275.64505859 -252.72558594 274.72167969 C-243.44025733 236.94512445 -222.53896079 199.47413292 -192.375 174.4375 C-191.52808594 173.69113281 -190.68117188 172.94476563 -189.80859375 172.17578125 C-170.95562334 155.83654023 -148.90955985 144.39655608 -125.375 136.4375 C-125.375 136.1075 -125.375 135.7775 -125.375 135.4375 C-172.16524063 133.0936475 -219.66792523 156.55388257 -250.52734375 190.875 Z M-179.375 204.4375 C-180.07496094 205.07558594 -180.77492187 205.71367187 -181.49609375 206.37109375 C-207.94930982 231.0644285 -225.80168273 271.05971568 -227.55200195 307.08007812 C-228.26167097 352.1143734 -218.82454714 393.77684527 -188.375 428.4375 C-187.31539062 429.67886719 -187.31539062 429.67886719 -186.234375 430.9453125 C-175.96838829 442.72534761 -163.9537088 453.55636926 -150.375 461.4375 C-149.715 461.4375 -149.055 461.4375 -148.375 461.4375 C-149.74541042 457.8340858 -151.34882216 454.38407907 -153.03979492 450.92089844 C-175.97516349 403.63757474 -179.73611598 349.66123488 -162.6875 299.75 C-154.17934664 275.96722325 -142.32380532 254.22445326 -125.375 235.4375 C-124.20733748 234.06334558 -123.04054439 232.68845145 -121.875 231.3125 C-95.2276362 201.34985385 -60.57212293 184.05373947 -22.375 173.4375 C-25.86858096 169.77565024 -29.62787618 167.01481425 -33.8046875 164.18359375 C-35.35648978 163.12940588 -36.88971055 162.04595948 -38.3828125 160.91015625 C-44.09620541 156.78647308 -49.46544082 156.54920188 -56.375 156.4375 C-57.59445312 156.39882812 -58.81390625 156.36015625 -60.0703125 156.3203125 C-105.10182189 155.51457973 -147.30760496 173.0917341 -179.375 204.4375 Z M115.25 164.5625 C112.84276339 168.82145708 112.85881023 172.65647581 113.625 177.4375 C115.60222293 181.32133075 117.71177409 184.42800561 121.625 186.4375 C126.09605742 187.54030384 129.5432346 187.80489202 133.9375 186.3125 C137.41640662 183.88535585 139.7287926 181.2299148 141.625 177.4375 C142.24047295 173.17593416 142.57493604 169.13624556 140.42578125 165.29296875 C136.69059021 160.82391146 133.64897573 158.63336862 127.75 158.0625 C122.26559355 158.21541096 119.2180793 161.01211326 115.25 164.5625 Z M-3.765625 200.91796875 C-24.14673029 204.65175423 -43.36815698 211.050574 -61.375 221.4375 C-58.72565568 223.57470341 -56.0588131 225.67852102 -53.3515625 227.7421875 C-36.01017558 240.98050158 -20.25812395 256.01581503 -8.375 274.4375 C-7.75367188 275.3965625 -7.13234375 276.355625 -6.4921875 277.34375 C10.22300606 303.82586058 19.88823291 331.48231157 24.625 362.4375 C27.5417402 359.5207598 28.2959022 355.91584253 29.5 352.0625 C29.76321045 351.22340088 30.0264209 350.38430176 30.29760742 349.51977539 C32.1680071 343.36406575 33.67600082 337.18249588 34.9375 330.875 C35.09653809 330.07980957 35.25557617 329.28461914 35.41943359 328.46533203 C41.30798111 297.36421362 37.07570477 264.43444222 24.625 235.4375 C24.32190918 234.73109375 24.01881836 234.0246875 23.70654297 233.296875 C19.50549267 223.66030207 14.72794942 215.01496463 8.625 206.4375 C7.99078125 205.33792969 7.3565625 204.23835937 6.703125 203.10546875 C4.9384603 200.23795621 4.9384603 200.23795621 2.328125 199.98828125 C0.30117051 200.32513062 -1.73119597 200.62967984 -3.765625 200.91796875 Z M-89.375 241.4375 C-98.7250091 250.43615176 -106.77964044 259.96886017 -114.1875 270.625 C-114.64374756 271.27807129 -115.09999512 271.93114258 -115.57006836 272.60400391 C-118.60537625 277.04758275 -121.0571543 281.58028956 -123.375 286.4375 C-121.75062145 287.77159037 -120.12545282 289.10471874 -118.5 290.4375 C-116.97632813 291.69046875 -116.97632813 291.69046875 -115.421875 292.96875 C-113.64086714 294.41182304 -111.84506097 295.83758642 -110.015625 297.21875 C-71.20451923 326.66165783 -46.69065318 373.51511737 -39.97265625 421.29931641 C-39.30926566 426.66886696 -38.79666596 432.04395188 -38.375 437.4375 C-26.46593258 433.26608437 -16.18349717 422.24599717 -7.375 413.4375 C-4.65616114 404.59887192 -5.01556319 395.09030371 -5.0625 385.9375 C-5.06465515 385.18360992 -5.0668103 384.42971985 -5.06903076 383.65298462 C-5.12238758 372.01981026 -5.62544606 360.77940999 -8.375 349.4375 C-8.56835938 348.61604492 -8.76171875 347.79458984 -8.9609375 346.94824219 C-15.81264343 318.66380798 -29.70147516 292.82620035 -49.95410156 271.90966797 C-51.38836139 270.4236565 -52.79957776 268.91789917 -54.2109375 267.41015625 C-64.41702295 256.67851685 -76.06733448 247.99449944 -89.375 241.4375 Z M-135.375 316.4375 C-149.50653358 351.0577327 -143.90765868 393.58421588 -130.375 427.4375 C-128.01120035 432.94447206 -125.29046968 438.20490653 -122.375 443.4375 C-121.76527344 444.54609375 -121.15554687 445.6546875 -120.52734375 446.796875 C-118.87256993 449.7209149 -117.13987288 452.57908148 -115.375 455.4375 C-114.91867188 456.27925781 -114.46234375 457.12101563 -113.9921875 457.98828125 C-112.61652929 460.26401297 -111.49698925 461.8352789 -109.375 463.4375 C-105.54319609 464.24268206 -102.14569161 463.29726682 -98.375 462.4375 C-97.5794873 462.26959961 -96.78397461 462.10169922 -95.96435547 461.92871094 C-86.33746317 459.89324005 -77.26136965 457.76165887 -68.375 453.4375 C-67.06990678 408.33927871 -84.32208128 366.76748442 -114.77050781 333.93261719 C-120.82099073 327.54293411 -127.21741892 321.57740904 -134.375 316.4375 C-134.705 316.4375 -135.035 316.4375 -135.375 316.4375 Z " fill="#000000" transform="translate(348.375,8.5625)"/>
</svg>
